<mxfile host="app.diagrams.net" modified="2023-09-28T13:30:03.218Z" agent="Mozilla/5.0 (Windows NT 10.0; Win64; x64; rv:109.0) Gecko/20100101 Firefox/117.0" etag="0ueX6hLbK-diNFQqx4QO" version="21.8.2" type="github">
  <diagram name="Page-1" id="WfAEvNczbCd-3w7CAvi3">
    <mxGraphModel dx="1900" dy="1615" grid="1" gridSize="10" guides="1" tooltips="1" connect="1" arrows="1" fold="1" page="1" pageScale="1" pageWidth="850" pageHeight="1100" math="0" shadow="0">
      <root>
        <mxCell id="0" />
        <mxCell id="1" parent="0" />
        <mxCell id="yLZL9cpvIzsgLJ1h8FNb-1" value="&lt;div&gt;@Before - Pre test case&lt;/div&gt;&lt;div&gt;&lt;br&gt;&lt;/div&gt;&lt;div&gt;@TestCase&lt;/div&gt;&lt;div&gt;&lt;br&gt;&lt;/div&gt;&lt;div&gt;@After&lt;br&gt;&lt;/div&gt;" style="whiteSpace=wrap;html=1;aspect=fixed;" vertex="1" parent="1">
          <mxGeometry x="-10" y="-30" width="240" height="240" as="geometry" />
        </mxCell>
        <mxCell id="yLZL9cpvIzsgLJ1h8FNb-2" value="Node ID 1" style="ellipse;whiteSpace=wrap;html=1;aspect=fixed;" vertex="1" parent="1">
          <mxGeometry x="400" y="-30" width="80" height="80" as="geometry" />
        </mxCell>
        <mxCell id="yLZL9cpvIzsgLJ1h8FNb-3" value="MySQL" style="shape=cylinder3;whiteSpace=wrap;html=1;boundedLbl=1;backgroundOutline=1;size=15;" vertex="1" parent="1">
          <mxGeometry x="700" y="-40" width="70" height="90" as="geometry" />
        </mxCell>
        <mxCell id="yLZL9cpvIzsgLJ1h8FNb-4" value="Node ID 2" style="ellipse;whiteSpace=wrap;html=1;aspect=fixed;" vertex="1" parent="1">
          <mxGeometry x="130" y="360" width="80" height="80" as="geometry" />
        </mxCell>
        <mxCell id="yLZL9cpvIzsgLJ1h8FNb-5" value="Node ID 3" style="ellipse;whiteSpace=wrap;html=1;aspect=fixed;" vertex="1" parent="1">
          <mxGeometry x="560" y="350" width="80" height="80" as="geometry" />
        </mxCell>
        <mxCell id="yLZL9cpvIzsgLJ1h8FNb-6" value="Node ID 4" style="ellipse;whiteSpace=wrap;html=1;aspect=fixed;" vertex="1" parent="1">
          <mxGeometry x="290" y="380" width="80" height="80" as="geometry" />
        </mxCell>
        <mxCell id="yLZL9cpvIzsgLJ1h8FNb-7" value="Node 5" style="ellipse;whiteSpace=wrap;html=1;aspect=fixed;" vertex="1" parent="1">
          <mxGeometry x="400" y="410" width="80" height="80" as="geometry" />
        </mxCell>
        <mxCell id="yLZL9cpvIzsgLJ1h8FNb-9" value="" style="endArrow=classic;startArrow=classic;html=1;rounded=0;entryX=0;entryY=0.5;entryDx=0;entryDy=0;" edge="1" parent="1" target="yLZL9cpvIzsgLJ1h8FNb-2">
          <mxGeometry width="50" height="50" relative="1" as="geometry">
            <mxPoint x="230" y="7.5" as="sourcePoint" />
            <mxPoint x="450" y="2.5" as="targetPoint" />
          </mxGeometry>
        </mxCell>
        <mxCell id="yLZL9cpvIzsgLJ1h8FNb-10" value="Message" style="ellipse;whiteSpace=wrap;html=1;aspect=fixed;" vertex="1" parent="1">
          <mxGeometry x="480" y="140" width="80" height="80" as="geometry" />
        </mxCell>
        <mxCell id="yLZL9cpvIzsgLJ1h8FNb-13" value="Terminal" style="ellipse;whiteSpace=wrap;html=1;aspect=fixed;" vertex="1" parent="1">
          <mxGeometry x="670" y="80" width="80" height="80" as="geometry" />
        </mxCell>
        <mxCell id="yLZL9cpvIzsgLJ1h8FNb-14" value="" style="endArrow=classic;startArrow=classic;html=1;rounded=0;exitX=0.25;exitY=0.05;exitDx=0;exitDy=0;exitPerimeter=0;" edge="1" parent="1" source="yLZL9cpvIzsgLJ1h8FNb-10">
          <mxGeometry width="50" height="50" relative="1" as="geometry">
            <mxPoint x="420" y="90" as="sourcePoint" />
            <mxPoint x="470" y="40" as="targetPoint" />
          </mxGeometry>
        </mxCell>
        <mxCell id="yLZL9cpvIzsgLJ1h8FNb-15" value="" style="endArrow=classic;startArrow=classic;html=1;rounded=0;entryX=1;entryY=0.4;entryDx=0;entryDy=0;entryPerimeter=0;" edge="1" parent="1" target="yLZL9cpvIzsgLJ1h8FNb-2">
          <mxGeometry width="50" height="50" relative="1" as="geometry">
            <mxPoint x="670" y="116" as="sourcePoint" />
            <mxPoint x="600" y="116" as="targetPoint" />
          </mxGeometry>
        </mxCell>
        <mxCell id="yLZL9cpvIzsgLJ1h8FNb-18" style="edgeStyle=orthogonalEdgeStyle;rounded=0;orthogonalLoop=1;jettySize=auto;html=1;entryX=0.855;entryY=1;entryDx=0;entryDy=-4.35;entryPerimeter=0;" edge="1" parent="1" source="yLZL9cpvIzsgLJ1h8FNb-13" target="yLZL9cpvIzsgLJ1h8FNb-3">
          <mxGeometry relative="1" as="geometry" />
        </mxCell>
        <mxCell id="yLZL9cpvIzsgLJ1h8FNb-19" value="One to Many" style="text;html=1;strokeColor=none;fillColor=none;align=center;verticalAlign=middle;whiteSpace=wrap;rounded=0;" vertex="1" parent="1">
          <mxGeometry x="550" y="20" width="60" height="30" as="geometry" />
        </mxCell>
        <mxCell id="yLZL9cpvIzsgLJ1h8FNb-20" value="One to One" style="text;html=1;strokeColor=none;fillColor=none;align=center;verticalAlign=middle;whiteSpace=wrap;rounded=0;" vertex="1" parent="1">
          <mxGeometry x="480" y="75" width="60" height="30" as="geometry" />
        </mxCell>
      </root>
    </mxGraphModel>
  </diagram>
</mxfile>
